<svg width="336" height="240" viewBox="0 0 336 240" fill="none" xmlns="http://www.w3.org/2000/svg">
<path d="M336 0H0V240H336V0Z" fill="white"/>
<path d="M244.34 109.633L244.04 221.319L98.7 137.4L99 25.712L244.34 109.633Z" fill="#0078D4"/>
<path d="M244.34 109.633L244.04 221.319L98.7 137.4L99 25.712L244.34 109.633Z" fill="url(#paint0_linear)"/>
<path d="M244.34 109.633L255.895 102.912L255.6 214.6L244.045 221.32L244.34 109.633Z" fill="#004E99"/>
<path d="M99 25.712L110.552 19L255.9 102.912L244.344 109.633L99 25.712Z" fill="#0078D4"/>
<path opacity="0.75" d="M106.314 39.882L236.735 115.754V208.911L106.314 133.62V39.882Z" fill="#F0F0F0"/>
<path d="M124.13 176.638L145.365 164.338L194.143 192.293L172.434 204.586L124.13 176.638Z" fill="#0078D4"/>
<path d="M139 168.024L145.367 164.336L194.146 192.291L187.819 195.872L139 168.024Z" fill="#004E99"/>
<path d="M172.434 207.313V204.584L124.134 176.638V179.81L172.434 207.313Z" fill="#0078D4"/>
<path d="M172.434 207.313V204.584L124.134 176.638V179.81L172.434 207.313Z" fill="url(#paint1_linear)"/>
<path d="M196.446 193.832L172.433 207.313V204.584L194.143 192.291L196.446 193.832Z" fill="#141E2F"/>
<path d="M203.067 172.584L202.978 178.184L118.065 129.058V123.458L203.067 172.584ZM176.448 115.73V122.57L143.974 103.826V96.986L176.448 115.73ZM198.9 128.7V135.629L181.24 125.413V118.484L198.9 128.7ZM227.914 175.427V181.027L118.065 117.6V112L227.914 175.427ZM227.914 163.967V169.567L118.065 106.047L118.153 100.539L227.914 163.967ZM207.329 122.215L207.24 129.144L144.065 92.544V85.7L207.329 122.215ZM228 145.49V152.419L203.156 138.027V131.187L228 145.49ZM127.559 73.445C133.415 76.82 138.118 84.993 138.029 91.656C138.029 98.318 133.237 101.072 127.47 97.696C121.703 94.32 117 86.237 117 79.485C117 72.823 121.791 70.069 127.559 73.445Z" fill="#B4CFE3"/>
<path d="M118.258 107.539L125.196 103.493L125.096 155.813L118.062 159.86L118.258 107.539Z" fill="#45CAF2"/>
<path d="M118.066 159.86L59 125.75L59.1 79.115L118.166 113.224L118.066 159.86Z" fill="#50E6FF"/>
<path d="M59.193 72.0811L118.258 106.19V113.224L59.193 79.1151V72.0811ZM68.346 82.7761C69.214 83.2581 69.888 82.876 69.888 81.909C69.8601 81.3834 69.7052 80.8722 69.4367 80.4195C69.1681 79.9667 68.7939 79.5857 68.346 79.3091C67.479 78.8281 66.805 79.2091 66.805 80.1761C66.873 80.691 67.0445 81.1869 67.3094 81.6338C67.5742 82.0806 67.9269 82.4692 68.346 82.7761V82.7761ZM63.721 80.076C64.589 80.558 65.263 80.1761 65.263 79.2091C65.2351 78.6834 65.0802 78.1723 64.8117 77.7195C64.5431 77.2667 64.1689 76.8857 63.721 76.6091C62.854 76.1281 62.18 76.5091 62.18 77.4771C62.2077 78.0028 62.3624 78.514 62.6308 78.967C62.8991 79.4199 63.2732 79.8012 63.721 80.0781V80.076ZM73.164 85.5681C74.031 86.0501 74.706 85.668 74.706 84.701C74.6781 84.1754 74.5232 83.6642 74.2547 83.2115C73.9861 82.7587 73.6119 82.3777 73.164 82.1011C72.297 81.6191 71.622 82.0011 71.622 82.9681C71.6496 83.4941 71.8043 84.0056 72.0729 84.4588C72.3414 84.9119 72.7158 85.2933 73.164 85.5701V85.5681Z" fill="#ACF3FD"/>
<path d="M118.258 106.191L125.196 102.144V109.178L118.162 113.224L118.258 106.191Z" fill="#ACF3FD"/>
<path d="M59.193 72.0809L66.13 68.0339L125.2 102.047L118.262 106.094L59.193 72.0809Z" fill="#D5F9FD"/>
<path d="M63.721 76.609C64.1689 76.8856 64.5431 77.2666 64.8117 77.7194C65.0802 78.1722 65.2351 78.6833 65.263 79.209C65.263 80.173 64.589 80.558 63.721 80.076C63.2733 79.7992 62.8993 79.4181 62.631 78.9654C62.3626 78.5126 62.2079 78.0016 62.18 77.476C62.18 76.513 62.854 76.128 63.721 76.609ZM68.346 79.309C68.7939 79.5856 69.1681 79.9666 69.4367 80.4194C69.7052 80.8722 69.8601 81.3833 69.888 81.909C69.888 82.872 69.214 83.258 68.346 82.776C67.8983 82.4992 67.5243 82.1181 67.256 81.6654C66.9876 81.2126 66.8329 80.7016 66.805 80.176C66.9 79.211 67.576 78.826 68.346 79.307V79.309ZM73.164 82.109C73.6119 82.3856 73.9861 82.7666 74.2547 83.2194C74.5232 83.6722 74.6781 84.1833 74.706 84.709C74.706 85.673 74.031 86.058 73.164 85.577C72.7164 85.3001 72.3424 84.9191 72.0741 84.4663C71.8057 84.0135 71.651 83.5025 71.623 82.977C71.623 82.005 72.3 81.62 73.164 82.1V82.109ZM79.042 103.109L81.258 106.963L74.031 111.107L81.162 123.536L78.945 124.789L69.5 108.5L79.042 103.109ZM98.024 114.094L107.37 130.281L97.927 135.773L95.711 131.919L102.938 127.776L95.808 115.346L98.024 114.094Z" fill="#0078D4"/>
<path d="M90.682 106.972L92.527 108.328L92.989 109.233L85.605 130.933H84.682L83.3 129.122L82.838 128.67L90.222 106.97L90.682 106.972Z" fill="#D5F9FD"/>
<path d="M268.521 154.447V161.577L262.258 158.012V150.786L268.521 154.447Z" fill="white"/>
<path d="M269.966 211.3L211.189 177.38L211.289 131.033L271.042 165.38L269.966 211.3Z" fill="#243A5E"/>
<path d="M270.062 159.361L277 155.314L276.9 207.346L269.962 211.296L270.062 159.361Z" fill="#1A2C45"/>
<path d="M211.286 124L271.039 157.449V159.613L269.966 164.951L211.286 131.034V124ZM220.44 134.695C221.307 135.177 221.981 134.795 221.981 133.828C221.951 133.314 221.806 132.813 221.556 132.363C221.306 131.913 220.957 131.525 220.536 131.228C219.669 130.747 218.994 131.128 218.994 132.096C219.024 132.61 219.17 133.11 219.42 133.56C219.67 134.01 220.019 134.398 220.44 134.694V134.695ZM215.815 131.995C216.682 132.477 217.356 132.095 217.356 131.128C217.326 130.614 217.181 130.113 216.931 129.663C216.681 129.212 216.332 128.825 215.911 128.528C215.044 128.046 214.369 128.428 214.369 129.395C214.398 129.91 214.543 130.412 214.794 130.863C215.044 131.314 215.393 131.703 215.815 132V131.995ZM225.161 137.395C226.028 137.877 226.703 137.495 226.703 136.528C226.673 136.014 226.528 135.513 226.277 135.063C226.027 134.613 225.678 134.225 225.257 133.928C224.39 133.447 223.716 133.828 223.716 134.796C223.746 135.31 223.892 135.81 224.142 136.259C224.392 136.709 224.74 137.096 225.161 137.392V137.395Z" fill="#156AB3"/>
<path d="M270.062 157.916L277 153.869V160.9L270.062 164.947V157.916Z" fill="#185A97"/>
<path d="M211.285 124L218.222 119.953L277 153.869L270.063 157.916L211.285 124Z" fill="#2195DC"/>
<path d="M220.343 134.694C221.21 135.176 221.885 134.794 221.885 133.827C221.876 133.308 221.739 132.8 221.487 132.346C221.235 131.893 220.876 131.509 220.44 131.227C219.669 130.745 218.994 131.127 218.802 132.094C218.83 132.62 218.984 133.131 219.253 133.583C219.521 134.036 219.895 134.417 220.343 134.694V134.694Z" fill="#50E6FF"/>
<path d="M225.065 137.489C225.932 137.97 226.606 137.589 226.606 136.621C226.597 136.102 226.46 135.594 226.208 135.14C225.956 134.687 225.597 134.303 225.161 134.021C224.39 133.539 223.716 133.921 223.619 134.888C223.628 135.407 223.765 135.916 224.017 136.369C224.269 136.823 224.629 137.207 225.065 137.489V137.489Z" fill="#50E6FF"/>
<path d="M228.275 166.076C228.239 165.899 228.173 165.73 228.08 165.576L227.56 164.676L227.55 164.663L220.112 151.519C219.948 151.241 219.726 151.002 219.461 150.819C219.368 150.753 219.259 150.712 219.145 150.7C219.031 150.689 218.916 150.706 218.811 150.752L218.291 151.052C217.933 151.252 217.933 151.952 218.291 152.581L225.091 164.575L226.262 163.911C226.294 163.892 226.341 163.9 226.379 163.89C226.338 163.902 226.299 163.92 226.263 163.943L225.092 164.608L218.426 168.529C218.068 168.729 218.068 169.429 218.426 170.057L218.946 170.957C219.11 171.234 219.331 171.473 219.596 171.657C219.69 171.723 219.799 171.764 219.913 171.776C220.027 171.787 220.142 171.769 220.247 171.723L228.084 167.105C228.34 166.973 228.405 166.541 228.275 166.076ZM226.569 163.866C226.551 163.865 226.533 163.865 226.515 163.866C226.534 163.872 226.549 163.864 226.569 163.866V163.866ZM226.909 163.983C227.152 164.142 227.356 164.355 227.503 164.605C227.35 164.359 227.148 164.147 226.909 163.983V163.983ZM228.047 165.545L227.555 164.675V164.681L228.075 165.581C228.168 165.735 228.234 165.904 228.27 166.081C228.209 165.897 228.135 165.718 228.047 165.545V165.545Z" fill="#50E6FF"/>
<path d="M215.814 128.528C215.044 128.142 214.176 128.428 214.176 129.395C214.204 129.921 214.359 130.432 214.627 130.884C214.896 131.337 215.27 131.718 215.718 131.995C216.585 132.477 217.26 132.095 217.26 131.128C217.251 130.609 217.114 130.1 216.862 129.647C216.61 129.194 216.25 128.809 215.814 128.528Z" fill="#50E6FF"/>
<path d="M239.37 180.886C239.64 181.066 239.863 181.307 240.021 181.59C240.18 181.873 240.268 182.19 240.28 182.514V183.909C240.28 184.509 239.857 184.74 239.37 184.441L226.882 177.1C226.612 176.92 226.389 176.679 226.23 176.396C226.072 176.113 225.983 175.796 225.971 175.472V174.072C225.971 173.472 226.394 173.241 226.882 173.54L239.37 180.886Z" fill="#ABF2FC"/>
<path d="M197.568 53.784L197.468 61.011L191.205 57.349L191.305 50.219L197.568 53.784Z" fill="white"/>
<path d="M197.954 58.4091L204.891 54.3621L204.791 106.298L197.853 110.345L197.954 58.4091Z" fill="#185A97"/>
<path d="M197.857 110.345L139.081 76.4281L139.181 30.0811L197.857 64.0001V110.345Z" fill="#0078D4"/>
<path d="M139.177 23.047L197.858 56.964V64L139.177 30.081V23.047ZM148.331 33.742C149.198 34.224 149.873 33.842 149.873 32.875C149.843 32.3607 149.698 31.8598 149.447 31.4096C149.197 30.9594 148.848 30.5715 148.427 30.275C147.56 29.793 146.886 30.175 146.886 31.142C146.916 31.6562 147.061 32.1571 147.311 32.6073C147.561 33.0575 147.91 33.4454 148.331 33.742V33.742ZM143.706 31.042C144.573 31.524 145.248 31.142 145.248 30.175C145.218 29.6607 145.073 29.1598 144.822 28.7096C144.572 28.2594 144.223 27.8715 143.802 27.575C142.935 27.093 142.261 27.475 142.261 28.442C142.29 28.9566 142.435 29.4579 142.686 29.9084C142.936 30.359 143.285 30.7472 143.706 31.044V31.042ZM153.149 36.442C154.016 36.924 154.69 36.542 154.69 35.575C154.66 35.0608 154.515 34.5599 154.265 34.1097C154.015 33.6595 153.666 33.2716 153.245 32.975C152.378 32.493 151.703 32.875 151.703 33.842C151.692 34.3644 151.82 34.8803 152.074 35.3368C152.328 35.7933 152.699 36.1741 153.149 36.44V36.442Z" fill="#50E6FF"/>
<path d="M197.954 56.964L204.891 52.917V59.951L197.954 64V56.964Z" fill="#32B0E7"/>
<path d="M139.176 23.047L146.21 19L204.891 52.917L197.953 56.964L139.176 23.047Z" fill="#45CAF2"/>
<path d="M143.706 27.576C144.142 27.8576 144.501 28.2421 144.753 28.6955C145.005 29.1489 145.142 29.6574 145.151 30.176C145.151 31.14 144.477 31.525 143.61 31.044C143.162 30.7673 142.788 30.3863 142.519 29.9335C142.251 29.4808 142.096 28.9697 142.068 28.444C142.261 27.479 142.935 27.094 143.706 27.576ZM148.331 30.276C148.767 30.5576 149.126 30.9421 149.378 31.3955C149.63 31.8489 149.767 32.3574 149.776 32.876C149.776 33.84 149.102 34.225 148.234 33.744C147.786 33.4672 147.412 33.0861 147.144 32.6333C146.876 32.1806 146.721 31.6696 146.693 31.144C146.885 30.177 147.56 29.792 148.331 30.274V30.276ZM153.149 33.07C153.585 33.3516 153.944 33.7361 154.196 34.1895C154.448 34.6429 154.585 35.1514 154.594 35.67C154.594 36.634 153.919 37.019 153.052 36.538C152.616 36.2563 152.257 35.8719 152.005 35.4185C151.753 34.9651 151.616 34.4567 151.607 33.938C151.607 32.972 152.281 32.586 153.149 33.068V33.07ZM160.149 50.803V52.928C159.057 52.309 158.511 52.657 158.511 54.009L158.472 62.162C158.472 64.017 157.965 64.906 156.872 64.751C157.953 65.9562 158.513 67.5394 158.432 69.156L158.393 77.231C158.365 77.8556 158.485 78.478 158.744 79.047C158.993 79.5178 159.372 79.907 159.836 80.168C159.875 80.206 159.914 80.206 159.953 80.245L160.031 82.409C159.914 82.331 159.758 82.254 159.641 82.177C158.562 81.5154 157.61 80.6644 156.833 79.665C156.169 78.5172 155.844 77.2042 155.897 75.879L155.936 67.379C155.985 66.795 155.873 66.2086 155.612 65.684C155.35 65.1594 154.95 64.7166 154.454 64.404V62.276C155.468 62.894 155.975 62.431 155.975 60.962V52.655C155.975 51.11 156.287 50.144 156.911 49.835C157.575 49.564 158.667 49.951 160.149 50.8V50.803ZM173.449 58.376C174.528 59.0374 175.479 59.8884 176.256 60.888C176.92 62.0359 177.245 63.3488 177.192 64.674L177.153 73.136C177.104 73.7201 177.216 74.3064 177.477 74.831C177.739 75.3556 178.139 75.7984 178.635 76.111V78.236C177.621 77.657 177.114 78.12 177.114 79.589L177.075 87.819C177.075 89.364 176.763 90.33 176.139 90.639C175.477 90.91 174.424 90.639 172.903 89.789V87.662C173.995 88.28 174.541 87.971 174.541 86.58L174.58 78.428C174.58 76.573 175.087 75.684 176.18 75.839C175.106 74.6299 174.547 73.0494 174.621 71.434L174.66 63.359C174.683 62.72 174.56 62.0842 174.3 61.5C174.029 61.0459 173.655 60.6619 173.208 60.379C173.169 60.341 173.13 60.341 173.091 60.302L173.013 58.139C173.162 58.209 173.306 58.2874 173.446 58.374L173.449 58.376Z" fill="#243A5E"/>
<defs>
<linearGradient id="paint0_linear" x1="171.52" y1="25.712" x2="171.52" y2="221.319" gradientUnits="userSpaceOnUse">
<stop stop-color="#69E2FF"/>
<stop offset="1" stop-color="white" stop-opacity="0"/>
</linearGradient>
<linearGradient id="paint1_linear" x1="124.13" y1="191.976" x2="172.434" y2="191.976" gradientUnits="userSpaceOnUse">
<stop stop-color="#69E2FF"/>
<stop offset="1" stop-color="white" stop-opacity="0"/>
</linearGradient>
</defs>
</svg>
