  <svg width="172" height="24" viewBox="0 0 172 24" fill="none" xmlns="http://www.w3.org/2000/svg">
    <path
      d="M154.862 3.83505L152.624 0H164.559C166.175 0 171.273 2.59794 171.273 7.91753C171.273 12.1732 167.957 14.7216 166.3 15.4639L171.273 24H166.673L159.462 11.8763H164.186C165.264 11.6701 167.394 10.5897 167.294 7.91753C167.195 5.24536 165.181 4.08247 164.186 3.83505H154.862Z"
      fill="#0D9BFF"
    />
    <path
      d="M147.593 0L135.693 24H140.156L147.593 9.15464L151.187 16.0825H155.898L147.593 0Z"
      fill="#0D9BFF"
    />
    <path d="M157.654 20.0816H153.36L155.154 24H159.74L157.654 20.0816Z" fill="#0D9BFF" />
    <path
      d="M95.9421 4.08247L92.0161 0H105.635C107.843 0.742268 111.892 2.96907 111.892 8.16495C111.892 13.1134 107.761 14.9691 105.635 15.8351L95.9421 16.0825V24H92.0161V11.7526H105.021C105.88 11.1753 107.843 10.5155 107.843 7.79381C107.843 5.44822 106.051 4.58095 105.027 4.08559L105.021 4.08247H95.9421Z"
      fill="#0D9BFF"
    />
    <path d="M115.327 19.1656V0H119.448V15.1781L115.327 19.1656Z" fill="#0D9BFF" />
    <path d="M119.883 19.8839L115.762 24H132.503V19.8839H119.883Z" fill="#0D9BFF" />
    <path
      d="M63.7979 5.56701V0L76.0692 11.7526L87.8447 0V24H83.7543V10.0206L76.0692 17.6907L63.7979 5.56701Z"
      fill="#0D9BFF"
    />
    <path d="M59.3811 19.8367H43.1863V23.9999H59.3811V19.8367Z" fill="#0D9BFF" />
    <path d="M59.3811 10.0408H43.1863V14.204H59.3811V10.0408Z" fill="#0D9BFF" />
    <path d="M59.3811 0H43.1863V4.16327H59.3811V0Z" fill="#0D9BFF" />
    <path d="M16.1948 19.8367H0V23.9999H16.1948V19.8367Z" fill="#0D9BFF" />
    <path d="M16.1948 10.0408H0V14.204H16.1948V10.0408Z" fill="#0D9BFF" />
    <path d="M16.1948 0H0V4.16327H16.1948V0Z" fill="#0D9BFF" />
    <path d="M24.783 11.9385L6.1344 0H16.5629L29.6905 8.73846L24.783 11.9385Z" fill="white" />
    <path d="M34.5981 12.0615L53.2467 24L42.8182 24L29.6906 15.2615L34.5981 12.0615Z" fill="white" />
    <path d="M24.783 12.0615L6.1344 24H16.5629L29.6905 15.2615L24.783 12.0615Z" fill="white" />
    <path d="M34.5981 11.9385L53.2467 0L42.8182 0L29.6906 8.73846L34.5981 11.9385Z" fill="white" />
  </svg>
